<?xml version="1.0" encoding="UTF-8"?><svg id="Layer_1" xmlns="http://www.w3.org/2000/svg" width="1000" height="1000" xmlns:xlink="http://www.w3.org/1999/xlink" viewBox="0 0 1000 1000"><defs><style>.cls-1{fill:#ff9100;}.cls-2{fill:#520067;}.cls-3{fill:url(#linear-gradient-2);}.cls-4{fill:url(#linear-gradient-4);}.cls-5{fill:url(#linear-gradient-3);}.cls-6{fill:url(#linear-gradient-5);}.cls-7{fill:url(#linear-gradient-6);}.cls-8{fill:#fefefe;}.cls-9{fill:url(#linear-gradient);}</style><linearGradient id="linear-gradient" x1="280.27" y1="674.7" x2="64.1" y2="674.7" gradientUnits="userSpaceOnUse"><stop offset="0" stop-color="#005c81"/><stop offset="1" stop-color="#95009e"/></linearGradient><linearGradient id="linear-gradient-2" x1="301.05" y1="689.53" x2="164.58" y2="689.53" xlink:href="#linear-gradient"/><linearGradient id="linear-gradient-3" x1="235.14" y1="601.97" x2="622.02" y2="441.19" gradientUnits="userSpaceOnUse"><stop offset="0" stop-color="#005c81"/><stop offset=".58" stop-color="#582592"/><stop offset="1" stop-color="#95009e"/></linearGradient><linearGradient id="linear-gradient-4" x1="361.41" y1="755.36" x2="745.68" y2="371.08" gradientUnits="userSpaceOnUse"><stop offset="0" stop-color="#00d1f9"/><stop offset=".25" stop-color="#02cef8"/><stop offset=".42" stop-color="#0ac5f6"/><stop offset=".56" stop-color="#18b6f3"/><stop offset=".69" stop-color="#2ba1ef"/><stop offset=".81" stop-color="#4585e9"/><stop offset=".92" stop-color="#6364e3"/><stop offset="1" stop-color="#7f47dd"/></linearGradient><linearGradient id="linear-gradient-5" x1="510.6" y1="228.14" x2="870.08" y2="228.14" xlink:href="#linear-gradient"/><linearGradient id="linear-gradient-6" x1="298.12" y1="644.49" x2="875.32" y2="644.49" xlink:href="#linear-gradient"/></defs><path class="cls-9" d="M208.58,682.24c-14.43,15.36-35.06,36.88-49.5,52.21-22.98,27.13-62.97,40.13-94.99,19.54l168.5-168.68c16,7.61,31.36,14.62,47.68,20.84-22.29,24.72-48.84,51.74-71.69,76.1Z"/><path class="cls-3" d="M183.83,735.01c9.44-14.57,34.27-53.13,47.26-64.04,17.16-17.54,37.78-41.25,55.45-57.91l14.51,24.68s-69.3,93.06-69.3,93.06c-14.66,22.8-38.49,40.36-67.17,33.82l19.25-29.61Z"/><path class="cls-5" d="M465.01,635.99c-77.68,2.12-155.47-23.94-225.92-57.06l66.77-67.06c4.83-4.85,8.61-9.83,14.02-13.93l9.07-9.77,111.46-110.66c43.42-40.79,109.87-45.3,158.75-12.45,34.21,22.99,55.46,60.01,58.51,101.09,3.18,42.79-13.5,84.01-44.88,113.1-26.59,24.64-58.68,41.12-93.9,49.92-17.93,4.48-35.27,6.32-53.86,6.83Z"/><path class="cls-2" d="M529.38,591.47c-71.91,24.93-157.11,5.62-227.52-20.69-1.97-.84-3.49-1.86-4.02-3.07-.85-1.84.52-3.93,1.89-5.26,10.32-10.11,43.97-43.06,71.24-69.92,11.46-11.03,18.78-18.88,23.04-22.4.76-.27,1.39,1.12,2.41,3.9,23.67,69.98,101.63,111.29,174.43,93.77,7.47-1.7,2.54,1.87-.31,3.86-12.61,8.79-26.6,14.71-40.97,19.74l-.19.06Z"/><path class="cls-1" d="M631.04,839.62c.53,1.46-.39,1.67-1.49,1.65-16.25-.63-116.55,1.51-129.99-.45-.02-.4.11-.81.32-1.23.92-1.94,4.2-5.74,8.02-7.9,6.37-3.66,13.77-4.69,21.13-5.09,5.07-.27,17.64.83,14.99-7.17-7.25-11.25-23.23-31.81-28.78-39.84-1.57-2.15-1.82-3.01,2.11-2.51,5.32.68,11.51,1.43,16.88,2.31,3.37.62,4.04,1.49,6.06,4.23,7.09,9.62,19.77,26.87,26.89,36.54,1.67,2.16,2.54,3.83,4.47,5.15,2.27,1.43,5.8,1.19,8.63,1.27,15.54.52,41.85-3.82,50.73,12.94l.03.08Z"/><path class="cls-1" d="M698.8,839.78c-.92,2.15-4.16,1.47-7.64,1.65-12.93.05-32.61.16-43.91-.23-6.49.23-9.03-6.22-12.74-10.54-3.87-4.39-9.04-7.18-14.51-9.21-2.97-1.15-6.06-1.88-8.82-3.38-2.29-1.25-3.67-3.17-6.04-6.37-2.84-3.81-5.72-7.65-8.61-11.52-3.2-4.28-7.03-9.41-9.95-13.31-2-2.73-3.46-4.36-2.9-5.15.36-.57,1.77-.82,4.02-1.04,4.61-.17,10.85-1.45,15.25-.27,1.18.44,1.98,1.24,2.79,2.22,7.76,9.17,23.37,35.97,35.28,43.27,2.55,1.15,5.9.98,8.97.98,15.18-.06,35.34-2.08,46.08,8.16,1.27,1.15,3.01,3.28,2.75,4.64l-.02.08Z"/><path class="cls-4" d="M675.51,393.02c33.72,53.42,92.2,95.53,158.45,86.26,2.59-.37,5.98-.54,7.13,1.89.64,1.23.76,3.06.69,5.08-7.75,182.09-211.21,304.91-378.48,233.29-2.45-.96-3.72-1.24-4.87-.82-12.96,5.64-82.77,37.21-92.25,41.22-.43.09-.27-.4-.24-.67,4.81-19.24,16.59-65.12,19.63-77.24,2.27-5.56-1.67-10.49-5.84-14.09-11.44-10.7-22.35-22.05-31.46-34.88-1.3-2.46.42-2.57,2.63-2.2,36.5,8.8,73.73,14.84,110.9,14.03,103.68-.16,216.96-70.92,203.71-186.11-10.48-89.85-103-147.12-188.27-114.72-.93.16-5.28,2.38-4.84.93,48.43-70.71,111.26-85.59,162.8-84.38"/><path class="cls-6" d="M725.68,278.13c-2.38,1.21-5.99-.2-8.64-1.46-68.07-31.04-139.95-38.2-202.27,8.7-2.4,1.67-3.96,2.36-4.15,1.39-.22-1.11.94-3.36,1.56-4.76,10.88-22.62,26.74-42.2,44-60.29,85.59-95.39,277.33-82.53,312.85,49.8,1.61,5.33,1.92,11.18-3.47,13.72-19.09,8.22-40.31,10.75-60.98,11.42-4.26.27-8.45-.68-9.19-5.66.63-33.66-45.52-48.93-64.01-19.49-1.46,2.37-3.27,5.54-5.58,6.57l-.14.06Z"/><path class="cls-7" d="M346.59,683.38c-1.53-2.63-4.02-5.71-6.2-8.26-14.45-15.94-27.65-32.68-38.91-51.14-4.05-6.66-6.4-12.49,4.75-8.5,8.23,3.16,17.46,5.07,24.55,10.61,6.43,5.01,10.98,12.99,16.49,19.34,6.67,8.21,14.16,15.86,21.59,23.34,4.02,4.39,8.37,8.49,7.21,14.52-4.12,19.36-16.36,62.08-20.14,82.42.25,7.2,7,6.78,11.99,3.96,16.81-7.67,71.31-32.63,86.79-39.65,4.2-1.85,6.98-1.51,12.29.39,171.93,71.17,377.45-60.18,383.52-247.22,1.04-3.53,3.21-6.5,6.25-8.55,3.33-2.28,8.1-4.23,11.43-4.73,1.39-.21,2.83-.16,4.02.53,3.15,1.64,3.25,8.92,3.04,13-4.92,198.5-217.79,341.42-402.73,275.8-7.79-2.53-14.54-2.58-21.58.51-40.04,17.98-89.68,41.23-129.57,58.66-3.95,1.53-4.8.8-4.05-2.33,4.81-19.27,25.41-101.38,30.87-123.19.89-3.52.57-5.81-1.53-9.39l-.07-.13Z"/><path class="cls-8" d="M837.54,325.92l23.02-30.33c-22.97,7.22-45.74,10.72-69.81,9.48-14.59,31.45-65.34,20.6-65.04-14.66-21.61-8.43-84.63-40.22-104.17-26.33-14.46,15.82-19.02,37.81-14.32,58.51,26.19,107.77,181.61,88.69,233.13,11.15-2.89-2.2-4.26-4.92-2.81-7.8Z"/><path class="cls-2" d="M873.3,456.77c-2.1,2.91-5.87,4.73-9.21,6.32-67.17,32.34-150.63-16.23-170-58.4,43.09,4.11,120.01-12.44,149.48-60.43,2.37-3.37,4.45-3.08,6.92-.25,4.51,5.12,9.24,11.4,14.12,16.35,2.81,3.01,5.78,4.69,7.2,8.3.8,2.07.94,4.74,1.03,7.05.94,22.8,1.71,50.49,2.31,73.19.1,2.64-.2,5.52-1.77,7.72l-.09.14Z"/><path class="cls-1" d="M935.93,307.26c-19.75,4.38-76,14.84-84.81,16.71-.7.1-1.47.31-.96-.63,4.86-6.9,13.51-18.14,18.91-25.5,2.09-2.78,3.7-5,4.72-6.28,1.13-1.34,1.59-1.79,3.09-1.5,10.96,3.14,52.22,14.89,59.03,17.19h0Z"/><path class="cls-1" d="M935.98,340.77c-10.1,3.07-51.6,14.14-61.19,16.83-3.26.87-3.92-1.61-6.62-4.32-4.4-5.22-13.38-15.03-17.48-20.35-.4-.83.63-.57,1.23-.57,9.74,1.08,64.15,6.04,84.06,8.39h0Z"/><circle class="cls-8" cx="767.08" cy="281.23" r="13.48"/></svg>