<?xml version="1.0" encoding="UTF-8"?>
<svg id="chickadee-chat-logo" xmlns="http://www.w3.org/2000/svg" width="390" height="390" viewBox="-20.255 0 390 390">
  <defs>
    <style>
      .cls-1 { fill: #e8e8f0; }
      .cls-2 { fill: #06060f; }
    </style>
  </defs>
  <circle id="eye-left" class="cls-1" cx="98.24" cy="170.59" r="34.4"/>
  <circle id="eye-right" class="cls-1" cx="252.46" cy="170.59" r="34.4"/>
  <circle id="pupil-left" class="cls-2" cx="115.44" cy="153.39" r="17.2"/>
  <circle id="pupil-right" class="cls-2" cx="269.66" cy="153.39" r="17.2"/>
  <path id="chickadee-body" class="cls-1" d="M252.86,57.15c-18.94-10.24-21.4-25.94,7.47-33.48-20.43-5.57-41.2,1.87-58.98,17.8C199.57,23.87,231.95.23,231.95.23,149.32-5.08,32.42,83.93,8.25,163.1c-12.93,36.69-10.09,79.35,4.51,116.67,15.47,31.07,54.97,2.45,35.22-24.17-29.54-39.51-23.69-100.8,16.6-130.79,44.39-33.97,97.85,13.31,98.64,61.77l-10.68,10.93c-10.71,10.97-11.67,28.16-2.24,40.25,0,0,7.51,9.7,14.43,18.57,5.43,6.97,15.98,6.94,21.38-.05,6.9-8.94,14.42-18.74,14.42-18.74,9.32-12.07,8.35-29.16-2.28-40.09-3.9-4.01-7.75-7.91-10.79-10.88,0,0,0,0,0,0,.39-46.01,47.68-92.25,92.37-65.7,33.66,19.58,47.5,63.7,38.71,100.89-15.08,59.71-82.47,88.83-139.66,89.34-67.18.61-87.04,82.43-9.12,78.76,188.65,2.14,248.71-244.57,83.09-332.73ZM190.38,227.76c2.36-.48,4.06,2.23,2.61,4.16-18.56,24.68-16.73,24.57-35.38.03-1.46-1.93.23-4.65,2.6-4.17,9.95,2.02,20.22,2.02,30.17-.02Z"/>
</svg>