<?xml version="1.0" encoding="UTF-8"?>
<svg id="chickadee-chat-logo" xmlns="http://www.w3.org/2000/svg" viewBox="0 0 340.68 380">
  <path fill="#e9e9e9" d="M95.76,132.88c-3.68,0-7.21.6-10.53,1.7,5.6,2.72,9.47,8.45,9.47,15.09,0,9.27-7.51,16.78-16.78,16.78-6.28,0-11.75-3.45-14.63-8.57-.72,2.73-1.1,5.6-1.1,8.57,0,18.54,15.03,33.56,33.56,33.56s33.56-15.03,33.56-33.56-15.03-33.56-33.56-33.56h0ZM246.23,132.88c-3.68,0-7.21.6-10.53,1.7,5.6,2.72,9.47,8.45,9.47,15.09,0,9.27-7.51,16.78-16.78,16.78-6.28,0-11.75-3.45-14.63-8.57-.72,2.73-1.1,5.6-1.1,8.57,0,18.54,15.03,33.56,33.56,33.56s33.56-15.03,33.56-33.56-15.03-33.56-33.56-33.56h0ZM338.64,180.5c-8-49.02-37.46-95.7-92.02-124.74-18.48-9.99-20.88-25.31,7.29-32.67-19.93-5.43-40.2,1.82-57.55,17.37C194.62,23.29,226.22.22,226.22.22,145.6-4.96,31.54,81.89,7.96,159.13c-46.03,150.16,122.59,217.74,122.59,217.74-.42-12.89,13.41-27.47,13.41-27.47-21.85-2.27-37.29-13.01-37.29-13.01,6.07-24.61,31.28-36.8,31.28-36.8-86.94.43-107.45-81.68-107.45-81.68-8.58-36.29,4.57-80.48,37.41-99.58,42.09-26.47,88.55,14.25,89.42,67.29l-12.15,12.44c-12.19,12.48-13.27,32.04-2.55,45.79,0,0,8.55,11.04,16.41,21.13,6.19,7.93,18.19,7.9,24.33-.06,7.85-10.18,16.4-21.33,16.4-21.33,10.61-13.73,9.5-33.17-2.6-45.6-4.44-4.56-8.82-9-12.27-12.37h0c.45-52.35,44.44-93.57,88.05-67.66,32.84,19.1,46.35,62.15,37.77,98.44,0,0-18.04,85.73-130.24,83.3-24.25-.53-49.49,9.19-61.36,31.36,18.06,10.07,46.71,12.09,67,7.29-20.3,4.8-42.34,17.24-46.15,40.09,40.71,8.76,83.35-20.8,105.87-52.17-10.11,15.48-23.55,36.61-19.14,52.27,53.99-1.3,127.14-116.71,111.94-198.03h0ZM188.21,232.46c2.69-.55,4.62,2.54,2.97,4.73-21.11,28.08-19.03,27.95-40.25.03-1.67-2.2.26-5.3,2.96-4.74l17.16,9.69,17.16-9.71h0Z"/>
</svg>
